<svg width="64" height="64" viewBox="0 0 64 64" fill="none" xmlns="http://www.w3.org/2000/svg">
<circle cx="32" cy="32" r="15" stroke="white" stroke-width="2"/>
<circle r="1" transform="matrix(-1 0 0 1 32 38)" fill="white" stroke="white" stroke-width="2"/>
<circle r="2" transform="matrix(-1 0 0 1 39 35)" stroke="white" stroke-width="2"/>
<rect x="22.5" y="26.5" width="1" height="2" fill="#1C2B4A" stroke="white"/>
<rect x="25.5" y="26.5" width="1" height="2" fill="#1C2B4A" stroke="white"/>
<rect x="28.5" y="26.5" width="1" height="2" fill="#1C2B4A" stroke="white"/>
<rect x="31.5" y="26.5" width="1" height="2" fill="#1C2B4A" stroke="white"/>
<rect x="34.5" y="26.5" width="1" height="2" fill="#1C2B4A" stroke="white"/>
<rect x="37.5" y="26.5" width="1" height="2" fill="#1C2B4A" stroke="white"/>
<rect x="40.5" y="26.5" width="1" height="2" fill="#1C2B4A" stroke="white"/>
<path d="M10 30C10 29.4477 10.4477 29 11 29H17V36H11C10.4477 36 10 35.5523 10 35V30Z" stroke="white" stroke-width="2"/>
<path d="M54 35C54 35.5523 53.5523 36 53 36H47V29H53C53.5523 29 54 29.4477 54 30V35Z" stroke="white" stroke-width="2"/>
</svg>
