<svg width="32" height="7" viewBox="0 0 32 7" fill="none" xmlns="http://www.w3.org/2000/svg">
<path d="M0 0.104633H2.27797L3.91976 4.95964L5.54102 0.104633H7.68559V6.89537H6.23877V1.87294H6.20799L4.52516 6.89537H3.24252L1.50839 1.87294H1.46734V6.89537H0V0.104633Z" fill="#1C2B4A"/>
<path d="M9.11878 0.104633H14.198V1.26607H10.7195V2.82511H13.8594V3.98655H10.7195V5.73393H14.3007V6.89537H9.11878V0.104633Z" fill="#1C2B4A"/>
<path d="M15.3817 0.104633H16.9824V2.82511H19.8145V0.104633H21.4152V6.89537H19.8145V3.98655H16.9824V6.89537H15.3817V0.104633Z" fill="#1C2B4A"/>
<path d="M28.8806 7C28.0324 7 27.3038 6.86049 26.695 6.58146C26.0862 6.29547 25.7818 5.77927 25.7818 5.03289V3.98655H24.4478V6.89537H22.8471V0.104633H24.4478V2.82511H25.7818V2.06129C25.7818 1.23817 26.0964 0.690582 26.7258 0.418535C27.3551 0.139511 28.0734 0 28.8806 0C29.7152 0 30.4437 0.142999 31.0662 0.428998C31.6887 0.714997 32 1.25909 32 2.06129V5.03289C32 5.73742 31.6922 6.24315 31.0765 6.55007C30.4608 6.85002 29.7289 7 28.8806 7ZM28.9011 5.83856C29.3868 5.83856 29.7562 5.78625 30.0093 5.68161C30.2693 5.57 30.3993 5.35376 30.3993 5.03289V2.05082C30.3993 1.72995 30.2796 1.50324 30.0401 1.3707C29.8007 1.23119 29.4176 1.16143 28.8909 1.16143C28.3573 1.16143 27.9708 1.2277 27.7314 1.36024C27.4988 1.49277 27.3825 1.72297 27.3825 2.05082V5.03289C27.3825 5.34679 27.5125 5.55954 27.7724 5.67115C28.0392 5.78276 28.4154 5.83856 28.9011 5.83856Z" fill="#1C2B4A"/>
</svg>
